# xmcd
#
# Track frame offsets:
#	150
#	18982
#	34137
#	46739
#	64702
#	79581
#	94888
#	111038
#	125516
#	139694
#	151079
#	166944
#	183214
#	197373
#	210187
#	226745
#	239265
#	249234
#	263096
#	276892
#	291195
#	302732
#	316143
#
# Disc length: 4361 seconds
#
# Revision: 2
# Processed by: cddbd v1.4b41PL2 Copyright (c) Steve Scherf et al.
# Submitted via: EZCDDA 4.3.2
#
DISCID=21110717
DTITLE=
DYEAR=1900
DGENRE=
TTITLE0=Rick and Renner - Coração Cigano
TTITLE1=Rio Negro and Solimões - Só Alegria
TTITLE2=Teodoro and Sampaio - Virus Da Paixão
TTITLE3=Gino and Geno - Lorota
TTITLE4=Rio Negro and Solimões - Balança, Mas Não Cai
TTITLE5=Teodoro and Sampaio - A Solteirona
TTITLE6=Gino and Geno - Quando Ela Quer
TTITLE7=Teodoro and Sampaio - Fogo No Rabo
TTITLE8=Rio Negro and Solimões - Solidão E Saudade
TTITLE9=Teodoro and Sampaio - Whisky Com Guaraná
TTITLE10=Gino and Geno - Macaco Velho
TTITLE11=Rio Negro and Solimões - Ta Mentindo
TTITLE12=Teodoro and Sampaio - Tadinha Da Minha Secretária
TTITLE13=Gino and Geno - Você É Meu Encanto
TTITLE14=Teodoro and Sampaio - Sou Da Turma Do Chapéu
TTITLE15=Rio Negro and Solimões - Bobeou, Tá Na Poeira
TTITLE16=Teodoro and Sampaio - Menino Sapeca
TTITLE17=Gino and Geno - Tem Jeito Não
TTITLE18=Teodoro and Sampaio - Já Fui Bom Nisso
TTITLE19=Rio Negro and Solimões - Palmas Pro Amor
TTITLE20=Teodoro and Sampaio - Amigo Descarado
TTITLE21=Gino and Geno - Vazei Na Braquiara
TTITLE22=Teodoro and Sampaio - Silicone
EXTD=
EXTT0=
EXTT1=
EXTT2=
EXTT3=
EXTT4=
EXTT5=
EXTT6=
EXTT7=
EXTT8=
EXTT9=
EXTT10=
EXTT11=
EXTT12=
EXTT13=
EXTT14=
EXTT15=
EXTT16=
EXTT17=
EXTT18=
EXTT19=
EXTT20=
EXTT21=
EXTT22=
PLAYORDER=
